# xmcd
#
# Track frame offsets: 
#        150
#        679
#        11213
#        26646
#        41940
#        54406
#        56634
#        71032
#        82545
#        96086
#        110464
#        119782
#        129511
#        129925
#        140940
#        154095
#        165164
#        178701
#        184777
#        210082
#        211325
#        223159
#
# Disc length: 2983 seconds
#
# Revision: 1
# Processed by: cddbd v1.5.2PL0 Copyright (c) Steve Scherf et al.
# Submitted via: ExactAudioCopy v0.95b3
#
DISCID=380ba516
DTITLE=Thom Bresh and Buster B. Jones - Guts and Steel - Groovemasters, Vo
DTITLE=l. 5
DYEAR=2001
DGENRE=Acoustic
TTITLE0=where you gonna be?
TTITLE1=Guts and Steel
TTITLE2=Marcel's Thumb
TTITLE3=2nd Avenue
TTITLE4=Pickin' and Foolin' - Stumpwater
TTITLE5=little tornado
TTITLE6=Guitarville
TTITLE7=Brokedown Tome
TTITLE8=Auvoir Mon Ami (Buster B. Jones Solo)
TTITLE9=9 Lb. Jam
TTITLE10=Dirty Laundry
TTITLE11=Cannon Ball Romp
TTITLE12=can we do it slower?
TTITLE13=I'll See You In My Dreams
TTITLE14=Peanut Butter and Jelly
TTITLE15=Music, Music, Music (Thom Bresh Solo)
TTITLE16=Tennessee Waltz
TTITLE17=Red Haired Boy
TTITLE18=Malaguena 
TTITLE19=what's where?
TTITLE20=Eiffel Power
TTITLE21=huh
EXTD=
EXTT0=
EXTT1=
EXTT2=
EXTT3=
EXTT4=
EXTT5=
EXTT6=
EXTT7=
EXTT8=
EXTT9=
EXTT10=
EXTT11=
EXTT12=
EXTT13=
EXTT14=
EXTT15=
EXTT16=
EXTT17=
EXTT18=
EXTT19=
EXTT20=
EXTT21=
PLAYORDER=
